<svg width="42" height="42" viewBox="0 0 42 42" fill="none" xmlns="http://www.w3.org/2000/svg">
<path d="M42 21C42 26.5695 39.7875 31.911 35.8492 35.8492C31.911 39.7875 26.5695 42 21 42C15.4305 42 10.089 39.7875 6.15076 35.8492C2.21249 31.911 0 26.5695 0 21C0 15.4305 2.21249 10.089 6.15076 6.15076C10.089 2.21249 15.4305 0 21 0C26.5695 0 31.911 2.21249 35.8492 6.15076C39.7875 10.089 42 15.4305 42 21V21ZM22.3125 11.8125C22.3125 11.4644 22.1742 11.1306 21.9281 10.8844C21.6819 10.6383 21.3481 10.5 21 10.5C20.6519 10.5 20.3181 10.6383 20.0719 10.8844C19.8258 11.1306 19.6875 11.4644 19.6875 11.8125V27.0191L14.0543 21.3832C13.8078 21.1368 13.4735 20.9983 13.125 20.9983C12.7765 20.9983 12.4422 21.1368 12.1957 21.3832C11.9493 21.6297 11.8108 21.964 11.8108 22.3125C11.8108 22.661 11.9493 22.9953 12.1957 23.2418L20.0707 31.1168C20.1927 31.239 20.3375 31.336 20.497 31.4021C20.6564 31.4683 20.8274 31.5023 21 31.5023C21.1726 31.5023 21.3436 31.4683 21.503 31.4021C21.6625 31.336 21.8073 31.239 21.9293 31.1168L29.8043 23.2418C30.0507 22.9953 30.1892 22.661 30.1892 22.3125C30.1892 21.964 30.0507 21.6297 29.8043 21.3832C29.5578 21.1368 29.2235 20.9983 28.875 20.9983C28.5265 20.9983 28.1922 21.1368 27.9457 21.3832L22.3125 27.0191V11.8125Z" fill="white"/>
</svg>
